<svg width="478" height="112" viewBox="0 0 478 112" fill="none" xmlns="http://www.w3.org/2000/svg">
<path d="M159.336 87.88H120V23.64H133.992V76.264H159.336V87.88Z" fill="#071324"/>
<path d="M183.011 88.936C176.851 88.936 171.689 86.6773 167.523 82.16C163.358 77.584 161.275 71.952 161.275 65.264C161.275 58.5173 163.358 52.8853 167.523 48.368C171.689 43.792 176.851 41.504 183.011 41.504C185.769 41.504 188.35 42.032 190.755 43.088C193.219 44.144 195.185 45.5813 196.651 47.4V42.56H210.379V87.88H196.651V83.04C195.185 84.8587 193.249 86.296 190.843 87.352C188.438 88.408 185.827 88.936 183.011 88.936ZM174.915 65.264C174.915 68.6667 175.971 71.512 178.083 73.8C180.195 76.088 182.806 77.232 185.915 77.232C189.083 77.232 191.723 76.088 193.835 73.8C195.947 71.512 197.003 68.6667 197.003 65.264C197.003 61.8027 195.947 58.9573 193.835 56.728C191.723 54.44 189.083 53.296 185.915 53.296C182.747 53.296 180.107 54.44 177.995 56.728C175.942 58.9573 174.915 61.8027 174.915 65.264Z" fill="#071324"/>
<path d="M236.363 53.472V71.248C236.363 73.1253 236.862 74.592 237.859 75.648C238.915 76.6453 240.353 77.144 242.172 77.144C243.345 77.144 244.459 76.968 245.515 76.616C246.63 76.2053 247.657 75.6187 248.596 74.856V87C247.364 87.5867 245.926 88.056 244.284 88.408C242.7 88.76 241.086 88.936 239.443 88.936C234.281 88.936 230.174 87.4987 227.123 84.624C224.131 81.7493 222.635 77.7893 222.635 72.744V53.472H215.419V42.56H222.635V32.88L236.363 28.744V42.56H247.715V53.472H236.363Z" fill="#071324"/>
<path d="M261.602 21.264H261.778C263.949 21.264 265.768 22.0267 267.234 23.552C268.76 25.0187 269.522 26.8373 269.522 29.008C269.522 31.12 268.76 32.9387 267.234 34.464C265.709 35.9307 263.89 36.664 261.778 36.664H261.602C259.432 36.664 257.584 35.9307 256.058 34.464C254.592 32.9973 253.858 31.1787 253.858 29.008C253.858 26.8373 254.592 25.0187 256.058 23.552C257.584 22.0267 259.432 21.264 261.602 21.264ZM254.826 87.88V42.56H268.554V87.88H254.826Z" fill="#071324"/>
<path d="M294.44 53.472V71.248C294.44 73.1253 294.939 74.592 295.936 75.648C296.992 76.6453 298.429 77.144 300.248 77.144C301.421 77.144 302.536 76.968 303.592 76.616C304.707 76.2053 305.733 75.6187 306.672 74.856V87C305.44 87.5867 304.003 88.056 302.36 88.408C300.776 88.76 299.163 88.936 297.52 88.936C292.357 88.936 288.251 87.4987 285.2 84.624C282.208 81.7493 280.712 77.7893 280.712 72.744V53.472H273.496V42.56H280.712V32.88L294.44 28.744V42.56H305.792V53.472H294.44Z" fill="#071324"/>
<path d="M334.551 76.792C336.78 76.792 338.57 76 339.919 74.416C341.327 72.832 342.031 70.808 342.031 68.344V42.56H355.847V87.88H342.031V83.48C340.682 85.1813 338.922 86.5307 336.751 87.528C334.58 88.4667 332.263 88.936 329.799 88.936C324.754 88.936 320.764 87.4107 317.831 84.36C314.898 81.2507 313.431 77.1147 313.431 71.952V42.56H327.247V68.344C327.247 70.8667 327.892 72.92 329.183 74.504C330.532 76.0293 332.322 76.792 334.551 76.792Z" fill="#071324"/>
<path d="M361.778 65.264C361.778 58.5173 363.861 52.8853 368.026 48.368C372.191 43.792 377.354 41.504 383.514 41.504C386.33 41.504 388.941 42.0613 391.346 43.176C393.81 44.232 395.746 45.64 397.154 47.4V21H410.882V87.88H397.154V83.04C395.805 84.8 393.898 86.2373 391.434 87.352C388.97 88.408 386.33 88.936 383.514 88.936C377.354 88.936 372.191 86.6773 368.026 82.16C363.861 77.584 361.778 71.952 361.778 65.264ZM397.506 65.264C397.506 61.8027 396.45 58.9573 394.338 56.728C392.226 54.44 389.586 53.296 386.418 53.296C383.309 53.296 380.698 54.44 378.586 56.728C376.474 59.016 375.418 61.8613 375.418 65.264C375.418 68.6667 376.474 71.512 378.586 73.8C380.698 76.088 383.309 77.232 386.418 77.232C389.586 77.232 392.226 76.088 394.338 73.8C396.45 71.512 397.506 68.6667 397.506 65.264Z" fill="#071324"/>
<path d="M442.146 88.936C434.93 88.936 428.917 86.7067 424.106 82.248C419.295 77.7893 416.89 72.1573 416.89 65.352C416.89 58.7227 419.178 53.0907 423.754 48.456C428.33 43.8213 433.786 41.504 440.122 41.504C447.455 41.504 453.029 44.0267 456.842 49.072C460.714 54.0587 462.327 60.6587 461.682 68.872H429.738C430.442 71.688 432.026 73.8587 434.49 75.384C437.013 76.9093 440.151 77.672 443.906 77.672C446.429 77.672 448.981 77.2907 451.562 76.528C454.143 75.7067 456.373 74.6213 458.25 73.272V84.976C456.197 86.2667 453.762 87.2347 450.946 87.88C448.13 88.584 445.197 88.936 442.146 88.936ZM439.946 52.416C437.599 52.416 435.546 53.12 433.786 54.528C432.085 55.8773 430.853 57.7547 430.09 60.16H449.01C448.717 57.9307 447.749 56.0827 446.106 54.616C444.463 53.1493 442.41 52.416 439.946 52.416Z" fill="#071324"/>
<path fill-rule="evenodd" clip-rule="evenodd" d="M16.0002 53.9327C15.9994 53.9533 16.0011 53.9746 16.0002 53.9951L25.121 53.9951C26.1398 37.8812 39.6061 25.1116 56.0002 25.1116C72.3744 25.1116 85.8005 37.8781 86.8479 53.9951L96 53.9951C94.9598 32.8199 77.4609 15.9999 56.0006 15.9999C34.5612 15.9999 17.0719 32.7858 16.0013 53.9321L16.0002 53.9327Z" fill="#0080FF"/>
<path fill-rule="evenodd" clip-rule="evenodd" d="M16 57.9732C17.0254 79.1989 34.5275 96 55.9994 96C77.4724 96 94.9744 79.1991 95.9987 57.9732L16 57.9732Z" fill="#071324"/>
<path fill-rule="evenodd" clip-rule="evenodd" d="M29.1359 53.9941L40.0306 53.9941C41.0182 46.0705 47.8155 39.94 55.9996 39.94C64.164 39.94 70.9145 46.0976 71.9373 53.9941L82.8632 53.9941C81.8337 40.0295 70.2241 29.0898 55.9992 29.0898C41.7638 29.0898 30.1512 40.0524 29.1353 53.9941L29.1359 53.9941Z" fill="#E63948"/>
<path fill-rule="evenodd" clip-rule="evenodd" d="M44.0777 53.9941L67.8897 53.9941C66.9136 48.2634 61.9955 43.8891 55.9984 43.8891C49.9818 43.8891 45.0314 48.2576 44.0767 53.9941L44.0777 53.9941Z" fill="#FEC61A"/>
</svg>
