<svg width="24" height="24" viewBox="0 0 24 24" fill="none" xmlns="http://www.w3.org/2000/svg">
<rect y="24" width="24" height="24" rx="4" transform="rotate(-90 0 24)" fill="white"/>
<path fill-rule="evenodd" clip-rule="evenodd" d="M3.00005 11.5348C2.99987 11.5394 3.00024 11.5442 3.00005 11.5488L5.05222 11.5488C5.28145 7.9232 8.31137 5.05003 12.0001 5.05003C15.6842 5.05003 18.7051 7.92249 18.9408 11.5488L21 11.5488C20.766 6.7844 16.8287 2.9999 12.0001 2.9999C7.17628 2.9999 3.24118 6.77674 3.00029 11.5346L3.00005 11.5348Z" fill="#0080FF"/>
<path fill-rule="evenodd" clip-rule="evenodd" d="M3 12.444C3.23071 17.2198 7.1687 21 11.9999 21C16.8313 21 20.7692 17.2198 20.9997 12.444L3 12.444Z" fill="#071324"/>
<path fill-rule="evenodd" clip-rule="evenodd" d="M5.95571 11.5486L8.40702 11.5486C8.62922 9.76576 10.1586 8.3864 12.0001 8.3864C13.837 8.3864 15.3559 9.77186 15.586 11.5486L18.0443 11.5486C17.8127 8.40654 15.2006 5.9451 12 5.9451C8.79698 5.9451 6.18415 8.41169 5.95557 11.5486L5.95571 11.5486Z" fill="#E63948"/>
<path fill-rule="evenodd" clip-rule="evenodd" d="M9.31762 11.5488L14.6753 11.5488C14.4557 10.2594 13.3491 9.27519 11.9998 9.27519C10.646 9.27519 9.53219 10.2581 9.31738 11.5488L9.31762 11.5488Z" fill="#FEC61A"/>
</svg>
